<svg id="Layer_1" data-name="Layer 1" xmlns="http://www.w3.org/2000/svg" viewBox="0 0 37.28 38.33"><defs><style>.cls-1{fill:#fff;}.cls-2{fill:#fedf6d;}</style></defs><path class="cls-1" d="M19.45,0c10,.28,18.12,8.35,17.81,19.3-.32,11.8-8.84,19.3-19,19C7.26,38-.29,29.34,0,18.9.27,9.24,7.54-.32,19.45,0ZM18.28,1.39C12.75,1.23,8.42,6.65,8.11,17.82c-.3,10.55,3.76,18.91,11.1,19.12,5.64.16,9.64-5.44,9.94-16.39C29.48,8.76,25.22,1.58,18.28,1.39Z" transform="translate(0.01 0)"/><path class="cls-1" d="M26.25,23.71A31.75,31.75,0,0,1,24.91,28a24.93,24.93,0,0,1-4.74.64c-7.23,0-10.29-4.49-10.29-9.4,0-5.52,4.07-9.54,10.63-9.54a33,33,0,0,1,4.93.56c.06,1.42.25,3.12.39,4.27l-.5.11c-.56-2-1.25-3-2.82-3.77a6,6,0,0,0-2.7-.5c-4.19,0-6,3.74-6,8.34,0,5.39,2.51,9.24,6.64,9.24,2.59,0,4.1-1.57,5.33-4.36Z" transform="translate(0.01 0)"/><path class="cls-2" d="M20.54,14.13a4.77,4.77,0,0,1,4.52,5.17A4.81,4.81,0,0,1,20,24.16a4.77,4.77,0,0,1-4.78-5.25A5,5,0,0,1,20.54,14.13Zm-.34.49c-1.15-.07-1.86,1.15-2,3.8-.19,3,.53,5.19,1.9,5.28.88.05,1.81-.5,2-4C22.31,16.56,21.52,14.71,20.2,14.62Z" transform="translate(0.01 0)"/><path class="cls-2" d="M18.62,34.6a1.87,1.87,0,1,1,1.81-1.87A1.79,1.79,0,0,1,18.62,34.6Z" transform="translate(0.01 0)"/></svg>