<?xml version="1.0" encoding="utf-8"?>
<!-- Generator: Adobe Illustrator 25.0.0, SVG Export Plug-In . SVG Version: 6.00 Build 0)  -->
<svg version="1.1" id="Layer_1" xmlns="http://www.w3.org/2000/svg" xmlns:xlink="http://www.w3.org/1999/xlink" x="0px" y="0px"
	 viewBox="0 0 37.3 38.3" style="enable-background:new 0 0 37.3 38.3;" xml:space="preserve">
<style type="text/css">
	.st0{fill:#FFFFFF;}
</style>
<rect class="st0" width="37.3" height="38.3"/>
<path d="M19.3,4.6c7.6,0.2,13.8,6.4,13.6,14.7c-0.2,9-6.7,14.7-14.5,14.5C10,33.5,4.2,26.9,4.4,19C4.6,11.6,10.2,4.3,19.3,4.6z
	 M18.4,5.6c-4.2-0.1-7.5,4-7.7,12.5c-0.2,8,2.9,14.4,8.5,14.6c4.3,0.1,7.3-4.1,7.6-12.5C26.9,11.2,23.7,5.8,18.4,5.6z"/>
<path d="M24.4,22.6c-0.3,1.1-0.6,2.2-1,3.3c-1.2,0.3-2.4,0.4-3.6,0.5c-5.5,0-7.8-3.4-7.8-7.2c0-4.2,3.1-7.3,8.1-7.3
	c1.3,0,2.5,0.2,3.8,0.4c0,1.1,0.2,2.4,0.3,3.3l-0.4,0.1c-0.4-1.5-1-2.3-2.1-2.9c-0.6-0.3-1.4-0.4-2.1-0.4c-3.2,0-4.6,2.8-4.6,6.4
	c0,4.1,1.9,7,5.1,7c2,0,3.1-1.2,4.1-3.3L24.4,22.6z"/>
<path d="M20.1,15.3c2,0.1,3.6,1.8,3.5,3.8c0,0,0,0,0,0c0,0,0,0.1,0,0.1c0,2-1.6,3.7-3.6,3.7h-0.3c-2,0-3.6-1.6-3.7-3.6c0,0,0,0,0,0
	c0-0.1,0-0.3,0-0.4c0.1-2.1,1.9-3.7,4-3.7c0,0,0,0,0,0L20.1,15.3z M19.8,15.7c-0.9-0.1-1.4,0.9-1.5,2.9c-0.1,2.3,0.4,4,1.4,4
	c0.7,0,1.4-0.4,1.5-3C21.4,17.2,20.8,15.8,19.8,15.7z"/>
<path d="M18.6,30.9c-0.8,0-1.4-0.6-1.5-1.4c0-0.8,0.6-1.4,1.4-1.5c0.8,0,1.4,0.6,1.5,1.4v0C20,30.3,19.5,30.9,18.6,30.9L18.6,30.9z"
	/>
</svg>
