<svg id="Layer_1" data-name="Layer 1" xmlns="http://www.w3.org/2000/svg" viewBox="0 0 37.29 38.32"><path d="M19.46,0c10,.28,18.12,8.35,17.81,19.3-.32,11.8-8.84,19.3-19,19C7.27,38-.28,29.35,0,18.91.28,9.25,7.55-.31,19.46,0ZM18.29,1.4C12.76,1.24,8.43,6.66,8.12,17.83,7.82,28.38,11.88,36.74,19.22,37c5.64.16,9.64-5.44,9.94-16.39C29.49,8.77,25.23,1.59,18.29,1.4Z" transform="translate(0.01 0)"/><path d="M26.26,23.72A30.88,30.88,0,0,1,24.92,28a25.25,25.25,0,0,1-4.74.64c-7.23,0-10.29-4.49-10.29-9.4,0-5.52,4.11-9.54,10.63-9.54a32.64,32.64,0,0,1,4.93.56c.06,1.42.25,3.12.39,4.27l-.5.11c-.56-2-1.25-3-2.82-3.77a6.1,6.1,0,0,0-2.7-.5c-4.19,0-6,3.74-6,8.34,0,5.39,2.51,9.24,6.64,9.24,2.59,0,4.1-1.57,5.33-4.36Z" transform="translate(0.01 0)"/><path d="M20.55,14.14a4.77,4.77,0,0,1,4.53,5h0v.17a4.83,4.83,0,0,1-4.75,4.87H20a4.76,4.76,0,0,1-4.8-4.72v0a4.34,4.34,0,0,1,0-.51,5,5,0,0,1,5.2-4.79h.15Zm-.34.49c-1.15-.07-1.86,1.15-2,3.8-.19,3,.53,5.19,1.9,5.28.88.05,1.81-.5,2-4C22.32,16.57,21.53,14.72,20.21,14.63Z" transform="translate(0.01 0)"/><path d="M18.63,34.61a1.87,1.87,0,1,1,1.81-1.93v.06a1.8,1.8,0,0,1-1.71,1.87Z" transform="translate(0.01 0)"/></svg>