<svg id="Layer_1" data-name="Layer 1" xmlns="http://www.w3.org/2000/svg" viewBox="0 0 119.02 60.01"><defs><style>.cls-1{fill:#fcdf6f;}</style></defs><path d="M59.67,0A15.08,15.08,0,0,1,74.35,15.9c-.26,9.72-7.29,15.9-15.72,15.67a15.23,15.23,0,0,1-15-16C43.86,7.62,49.85-.27,59.67,0Zm-1,1.14C54.15,1,50.58,5.47,50.33,14.68c-.25,8.69,3.1,15.59,9.15,15.75,4.65.13,8-4.48,8.2-13.5C68,7.23,64.44,1.3,58.71,1.14Z" transform="translate(0.02 0.01)"/><path d="M65.28,19.53A25.82,25.82,0,0,1,64.19,23a19.5,19.5,0,0,1-3.91.54c-6,0-8.49-3.7-8.49-7.74,0-4.55,3.37-7.87,8.76-7.87a29.14,29.14,0,0,1,4.07.45c0,1.18.21,2.58.33,3.51l-.41.09a4.1,4.1,0,0,0-2.31-3.1A5,5,0,0,0,60,8.49c-3.45,0-4.92,3.07-4.92,6.87,0,4.44,2.06,7.62,5.47,7.62,2.15,0,3.39-1.28,4.4-3.59Z" transform="translate(0.02 0.01)"/><path d="M60.57,11.64a3.92,3.92,0,0,1,3.72,4.26,4.07,4.07,0,1,1-8.14-.33A4.19,4.19,0,0,1,60.57,11.64Zm-.28.42c-1-.06-1.53.95-1.68,3.12-.14,2.43.44,4.27,1.57,4.35.72,0,1.49-.41,1.68-3.3C62,13.65,61.38,12.12,60.29,12.06Z" transform="translate(0.02 0.01)"/><path class="cls-1" d="M59,28.51A1.47,1.47,0,0,1,57.52,27a1.48,1.48,0,1,1,2.95,0A1.45,1.45,0,0,1,59,28.51Z" transform="translate(0.02 0.01)"/><path d="M10.35,39a10,10,0,0,1,10,10.28c0,6.47-4.54,10.7-10.14,10.7A10.1,10.1,0,0,1,0,49.66C0,44.37,3.82,39,10.35,39Zm-.62.77c-3,0-5.31,3-5.31,9.14,0,5.78,2.36,10.29,6.36,10.29,3.1,0,5.19-3.12,5.19-9.11C16,43.65,13.53,39.79,9.73,39.79Z" transform="translate(0.02 0.01)"/><path d="M28.18,59.53H21V59c1.57-.27,1.67-.39,1.67-2.66V49.78c0-1.61-.24-1.8-1.38-2.17v-.39a19.8,19.8,0,0,0,5-1.2c0,.5-.08,2.13-.08,3.24.76-1.42,2-3.18,3.55-3.18a1.6,1.6,0,0,1,1.76,1.57A2.94,2.94,0,0,1,30,50c-.4.14-.56.08-.77-.13-.55-.51-.86-.93-1.42-.93s-1.06.25-1.57,1.32v6.12c0,2.25.25,2.31,2,2.66v.52Z" transform="translate(0.02 0.01)"/><path d="M38.34,59.57a3.57,3.57,0,0,1-1.17.33c-2.11,0-3.37-1.06-3.37-3.64V47.43H32l-.06-.19.52-.76H33.8V43.94a20.85,20.85,0,0,0,3.28-2.3l.33,0c0,.93-.12,3.05-.08,4.79h2.75a1.25,1.25,0,0,1-.12,1H37.33V55.6c0,2.29.87,2.75,1.61,2.75a3.09,3.09,0,0,0,1.18-.25l.15.45Z" transform="translate(0.02 0.01)"/><path d="M40.56,59.53V59c1.63-.27,1.69-.43,1.69-2.81V50c0-1.8-.08-1.92-1.36-2.36V47.2a21.14,21.14,0,0,0,4.93-1.12c0,.64-.06,2.42-.06,3.62v6.52c0,2.29.15,2.48,1.8,2.81v.5Zm3.22-16.09a1.88,1.88,0,0,1-1.86-1.94,1.91,1.91,0,1,1,3.82,0A1.9,1.9,0,0,1,43.78,43.44Z" transform="translate(0.02 0.01)"/><path d="M59.87,55.42c-.39,1.24-1,3.42-1.26,4.11H48.32l-.12-.38C50.62,55,52.76,51.29,55,47.3H52.76c-2,0-2.43.21-3.92,3.12l-.43-.12c.24-1.2.57-3.25.76-4.48h.37c.31.45.68.64,1.86.64h7.73l.12.24c-2.29,4-4.19,7.37-6.77,12h2.23c2.25,0,3.12-.76,4.73-3.49Z" transform="translate(0.02 0.01)"/><path d="M81.09,47.24a4.29,4.29,0,0,0-3.51,2.23C76.81,50.58,76,51.84,75,53.21a39.81,39.81,0,0,1,5.43,6.48l-.12.21c-3.06-.09-4.94-.77-5.31-1.2s-1.2-1.36-2.32-2.5c-1.94,2.66-3.94,3.7-5.91,3.7a5.91,5.91,0,0,1-6.15-5.6c0-2.35,1.36-3.59,4.54-5.49a6.31,6.31,0,0,1-2.29-4.54,5.15,5.15,0,0,1,5.29-5.12c3,0,5,1.88,5,4.29A3,3,0,0,1,72,46a16,16,0,0,1-2.69,1.61c1,.89,2.81,2.73,5.23,5a24.92,24.92,0,0,0,1.69-3c.69-1.54.4-1.94-1.75-2.37v-.45h6.65v.45ZM68.57,57.48a5.19,5.19,0,0,0,3.57-1.82c-2.54-2.68-3.88-4-6.48-6.36a5.26,5.26,0,0,0-1.49,3.43C64.19,56.16,66.26,57.48,68.57,57.48ZM68,39.83c-1.18,0-2,1.05-2,2.91,0,1.51.74,2.72,2.81,4.42a4.83,4.83,0,0,0,1.44-3.88C70.24,41.46,69.5,39.83,68,39.83Z" transform="translate(0.02 0.01)"/><path d="M100.14,54.59a35.61,35.61,0,0,1-1.49,4.69,29.06,29.06,0,0,1-5.25.7c-8,0-11.4-5-11.4-10.41C82,43.46,86.5,39,93.77,39a37.6,37.6,0,0,1,5.48.62c.06,1.57.27,3.45.43,4.73l-.55.12c-.62-2.19-1.39-3.36-3.12-4.17a6.76,6.76,0,0,0-3-.55c-4.63,0-6.61,4.12-6.61,9.22,0,6,2.79,10.22,7.35,10.22,2.88,0,4.55-1.73,5.91-4.81Z" transform="translate(0.02 0.01)"/><path d="M107.76,46.1a6.58,6.58,0,0,1,6.65,6.71c0,4.73-3.36,7.11-6.55,7.11a6.57,6.57,0,0,1-7-6.8A6.92,6.92,0,0,1,107.76,46.1Zm-.43.71c-1.57,0-2.44,1.73-2.44,5.36,0,4.07,1.18,7.09,3.06,7.09,1.19,0,2.44-.83,2.44-5.68C110.39,49.28,109.14,46.81,107.33,46.81Z" transform="translate(0.02 0.01)"/><path class="cls-1" d="M117,59.9a2.07,2.07,0,1,1,2-2.07A2,2,0,0,1,117,59.9Z" transform="translate(0.02 0.01)"/></svg>