<?xml version="1.0" encoding="utf-8"?>
<!-- Generator: Adobe Illustrator 25.0.0, SVG Export Plug-In . SVG Version: 6.00 Build 0)  -->
<svg version="1.1" id="Layer_1" xmlns="http://www.w3.org/2000/svg" xmlns:xlink="http://www.w3.org/1999/xlink" x="0px" y="0px"
	 viewBox="0 0 239.2 42.2" style="enable-background:new 0 0 239.2 42.2;" xml:space="preserve">
<style type="text/css">
	.st0{fill:#FFDF6C;}
</style>
<path d="M20.8,0C31.8,0,41,8.6,41,20.7c0,13-9.1,21.5-20.4,21.5C8.6,42.2,0,32.8,0,21.4C0,10.7,7.7,0,20.8,0z M19.6,1.5
	c-6.1,0-10.7,6.1-10.7,18.4c0,11.6,4.7,20.7,12.8,20.7c6.2,0,10.4-6.3,10.4-18.3C32.1,9.3,27.2,1.5,19.6,1.5z"/>
<path d="M56.6,41.2H42.2v-1c3.2-0.6,3.4-0.8,3.4-5.3V21.7c0-3.2-0.5-3.6-2.8-4.3v-0.8c3.4-0.4,6.8-1.2,10.1-2.4
	c-0.1,1-0.2,4.3-0.2,6.5c1.5-2.9,4.1-6.4,7.1-6.4c2,0,3.5,1.2,3.5,3.2c0,1.7-1.6,4.2-3.1,4.7c-0.8,0.3-1.1,0.2-1.5-0.2
	c-1.1-1.1-1.7-1.9-2.8-1.9c-0.9,0-2.1,0.5-3.2,2.7v12.3c0,4.5,0.5,4.7,4,5.3L56.6,41.2z"/>
<path d="M77.1,41.3c-0.7,0.4-1.5,0.6-2.4,0.7c-4.2,0-6.7-2.1-6.7-7.3V16.9h-3.7l-0.1-0.4l1.1-1.5H68V9.9c2.3-1.3,4.5-2.9,6.6-4.6
	l0.7,0.1C75.2,7.2,75,11.5,75,15h5.5c0.2,0.6,0.1,1.3-0.2,1.9H75v16.4c0,4.6,1.7,5.5,3.2,5.5c0.8,0,1.6-0.2,2.4-0.5l0.3,0.9
	L77.1,41.3z"/>
<path d="M81.5,41.2v-1c3.3-0.6,3.4-0.9,3.4-5.7V22c0-3.6-0.2-3.9-2.7-4.7v-0.9c3.4-0.4,6.7-1.1,9.9-2.2c-0.1,1.3-0.1,4.8-0.1,7.3
	v13.1c0,4.6,0.3,5,3.6,5.7v1L81.5,41.2z M88,8.9c-2.1,0-3.8-1.7-3.8-3.8c0,0,0,0,0-0.1c0-2.1,1.7-3.9,3.8-3.9c2.1,0,3.9,1.7,3.9,3.8
	c0,0,0,0,0,0c0,2.1-1.6,3.8-3.7,3.9C88.1,8.9,88.1,8.9,88,8.9z"/>
<path d="M120.3,33c-0.8,2.5-2.1,6.9-2.6,8.2H97.1l-0.2-0.7c4.8-8.3,9.2-15.8,13.7-23.9h-4.5c-4,0-4.9,0.4-7.9,6.3l-0.9-0.2
	c0.5-2.4,1.2-6.5,1.6-9h0.7c0.6,0.9,1.4,1.3,3.7,1.3h15.5l0.2,0.5c-4.6,8-8.4,14.9-13.6,24.2h4.5c4.5,0,6.3-1.5,9.5-7L120.3,33z"/>
<path d="M163,16.5c-3.4,0.6-4.7,1.2-7.1,4.5c-1.6,2.2-3.3,4.8-5.1,7.5c4.1,3.9,7.7,8.3,10.9,13l-0.2,0.4c-6.1-0.2-9.9-1.5-10.7-2.4
	s-2.4-2.7-4.7-5c-3.9,5.3-7.9,7.5-11.9,7.5c-7.9,0-12.4-6.2-12.4-11.2c0-4.7,2.7-7.2,9.1-11c-2.7-2.5-4.6-5.5-4.6-9.1
	c0-5.7,4.7-10.4,10.4-10.3c0,0,0.1,0,0.1,0c6,0,10.1,3.8,10.1,8.6c0.1,2-0.9,3.9-2.6,5.1c-1.7,1.2-3.5,2.3-5.4,3.2
	c2,1.8,5.6,5.5,10.5,10.1c1.3-1.9,2.4-3.9,3.4-6c1.4-3.1,0.8-3.9-3.5-4.8v-0.9H163V16.5z M137.8,37.1c2.7,0,5.6-1.8,7.2-3.7
	c-5.1-5.4-7.8-8.1-13-12.8c-1.8,1.8-2.9,4.3-3,6.9C129,34.5,133.2,37.1,137.8,37.1z M136.6,1.6c-2.4,0-4,2.1-4,5.8
	c0,3,1.5,5.5,5.6,8.9c1.4-1.3,2.9-3.4,2.9-7.8C141.2,4.9,139.7,1.6,136.6,1.6z"/>
<path d="M201.2,31.3c-0.8,3.2-1.8,6.4-3,9.4c-3.5,0.8-7,1.3-10.6,1.4c-16.1,0-22.9-10-22.9-20.9c0-12.3,9.1-21.2,23.7-21.2
	c5,0,9.5,1.1,11,1.2c0.1,3.2,0.6,7,0.9,9.5l-1.1,0.3c-1.2-4.4-2.8-6.8-6.3-8.4c-1.9-0.8-3.9-1.2-6-1.1c-9.3,0-13.3,8.3-13.3,18.6
	c0,12,5.6,20.5,14.8,20.5c5.8,0,9.1-3.5,11.9-9.7L201.2,31.3z"/>
<path d="M216.6,14.2c7.3-0.1,13.3,5.7,13.4,13c0,0.2,0,0.3,0,0.5c0,9.5-6.8,14.3-13.2,14.3c-10.1,0-14.1-7.3-14.1-13.7
	c-0.1-7.7,6.1-14,13.7-14.1C216.5,14.2,216.5,14.2,216.6,14.2z M215.7,15.7c-3.2,0-4.9,3.5-4.9,10.8c0,8.2,2.4,14.2,6.1,14.2
	c2.4,0,4.9-1.7,4.9-11.4C221.9,20.6,219.4,15.6,215.7,15.7L215.7,15.7z"/>
<path class="st0" d="M235.1,42c-2.3,0-4.2-1.9-4.2-4.2c0-2.3,1.9-4.2,4.2-4.2c2.3,0,4.2,1.9,4.2,4.2C239.3,40.1,237.4,42,235.1,42z"
	/>
</svg>
